<mxfile host="Electron" agent="Mozilla/5.0 (Macintosh; Intel Mac OS X 10_15_7) AppleWebKit/537.36 (KHTML, like Gecko) draw.io/26.0.16 Chrome/132.0.6834.196 Electron/34.2.0 Safari/537.36" version="26.0.16">
  <diagram name="PÃ¡gina-1" id="EzOeOn26SkMtyOW8a7fO">
    <mxGraphModel dx="707" dy="539" grid="1" gridSize="10" guides="1" tooltips="1" connect="1" arrows="1" fold="1" page="1" pageScale="1" pageWidth="827" pageHeight="1169" math="0" shadow="0">
      <root>
        <mxCell id="0" />
        <mxCell id="1" parent="0" />
        <mxCell id="GJp7qIwiaFxDaX9s0zIp-1" value="External Systems" style="whiteSpace=wrap;strokeWidth=2;" vertex="1" parent="1">
          <mxGeometry x="20" y="860" width="615" height="233" as="geometry" />
        </mxCell>
        <mxCell id="GJp7qIwiaFxDaX9s0zIp-2" value="Infrastructure Layer" style="whiteSpace=wrap;strokeWidth=2;" vertex="1" parent="1">
          <mxGeometry x="455" y="487" width="883" height="258" as="geometry" />
        </mxCell>
        <mxCell id="GJp7qIwiaFxDaX9s0zIp-3" value="Domain Layer" style="whiteSpace=wrap;strokeWidth=2;" vertex="1" parent="1">
          <mxGeometry x="716" y="860" width="976" height="233" as="geometry" />
        </mxCell>
        <mxCell id="GJp7qIwiaFxDaX9s0zIp-4" value="Application Layer" style="whiteSpace=wrap;strokeWidth=2;" vertex="1" parent="1">
          <mxGeometry x="990" y="60" width="1176" height="258" as="geometry" />
        </mxCell>
        <mxCell id="GJp7qIwiaFxDaX9s0zIp-5" value="API Layer" style="whiteSpace=wrap;strokeWidth=2;" vertex="1" parent="1">
          <mxGeometry x="1560" y="611" width="896" height="233" as="geometry" />
        </mxCell>
        <mxCell id="GJp7qIwiaFxDaX9s0zIp-6" value="Client Layer" style="whiteSpace=wrap;strokeWidth=2;" vertex="1" parent="1">
          <mxGeometry x="1726" y="457" width="258" height="104" as="geometry" />
        </mxCell>
        <mxCell id="GJp7qIwiaFxDaX9s0zIp-7" value="Client Application" style="whiteSpace=wrap;strokeWidth=2;" vertex="1" parent="1">
          <mxGeometry x="1761" y="482" width="188" height="54" as="geometry" />
        </mxCell>
        <mxCell id="GJp7qIwiaFxDaX9s0zIp-8" value="API Layer" style="whiteSpace=wrap;strokeWidth=2;" vertex="1" parent="1">
          <mxGeometry x="1791" y="636" width="127" height="54" as="geometry" />
        </mxCell>
        <mxCell id="GJp7qIwiaFxDaX9s0zIp-9" value="Application Layer" style="whiteSpace=wrap;strokeWidth=2;" vertex="1" parent="1">
          <mxGeometry x="1476" y="85" width="185" height="54" as="geometry" />
        </mxCell>
        <mxCell id="GJp7qIwiaFxDaX9s0zIp-10" value="Domain Layer" style="whiteSpace=wrap;strokeWidth=2;" vertex="1" parent="1">
          <mxGeometry x="1129" y="885" width="158" height="54" as="geometry" />
        </mxCell>
        <mxCell id="GJp7qIwiaFxDaX9s0zIp-11" value="Infrastructure Layer" style="whiteSpace=wrap;strokeWidth=2;" vertex="1" parent="1">
          <mxGeometry x="688" y="512" width="204" height="54" as="geometry" />
        </mxCell>
        <mxCell id="GJp7qIwiaFxDaX9s0zIp-12" value="External LLM Providers" style="whiteSpace=wrap;strokeWidth=2;" vertex="1" parent="1">
          <mxGeometry x="112" y="885" width="223" height="54" as="geometry" />
        </mxCell>
        <mxCell id="GJp7qIwiaFxDaX9s0zIp-13" value="Data Persistence" style="whiteSpace=wrap;strokeWidth=2;" vertex="1" parent="1">
          <mxGeometry x="421" y="885" width="179" height="54" as="geometry" />
        </mxCell>
        <mxCell id="GJp7qIwiaFxDaX9s0zIp-14" value="Controllers" style="whiteSpace=wrap;strokeWidth=2;" vertex="1" parent="1">
          <mxGeometry x="1595" y="765" width="139" height="54" as="geometry" />
        </mxCell>
        <mxCell id="GJp7qIwiaFxDaX9s0zIp-15" value="Middleware" style="whiteSpace=wrap;strokeWidth=2;" vertex="1" parent="1">
          <mxGeometry x="1784" y="765" width="142" height="54" as="geometry" />
        </mxCell>
        <mxCell id="GJp7qIwiaFxDaX9s0zIp-16" value="Swagger Documentation" style="whiteSpace=wrap;strokeWidth=2;" vertex="1" parent="1">
          <mxGeometry x="1976" y="765" width="233" height="54" as="geometry" />
        </mxCell>
        <mxCell id="GJp7qIwiaFxDaX9s0zIp-17" value="Health Checks" style="whiteSpace=wrap;strokeWidth=2;" vertex="1" parent="1">
          <mxGeometry x="2259" y="765" width="162" height="54" as="geometry" />
        </mxCell>
        <mxCell id="GJp7qIwiaFxDaX9s0zIp-18" value="CQRS Commands" style="whiteSpace=wrap;strokeWidth=2;" vertex="1" parent="1">
          <mxGeometry x="1025" y="239" width="179" height="54" as="geometry" />
        </mxCell>
        <mxCell id="GJp7qIwiaFxDaX9s0zIp-19" value="CQRS Queries" style="whiteSpace=wrap;strokeWidth=2;" vertex="1" parent="1">
          <mxGeometry x="1255" y="239" width="156" height="54" as="geometry" />
        </mxCell>
        <mxCell id="GJp7qIwiaFxDaX9s0zIp-20" value="Data Transfer Objects" style="whiteSpace=wrap;strokeWidth=2;" vertex="1" parent="1">
          <mxGeometry x="1461" y="239" width="216" height="54" as="geometry" />
        </mxCell>
        <mxCell id="GJp7qIwiaFxDaX9s0zIp-21" value="Application Services" style="whiteSpace=wrap;strokeWidth=2;" vertex="1" parent="1">
          <mxGeometry x="1727" y="239" width="204" height="54" as="geometry" />
        </mxCell>
        <mxCell id="GJp7qIwiaFxDaX9s0zIp-22" value="Validators" style="whiteSpace=wrap;strokeWidth=2;" vertex="1" parent="1">
          <mxGeometry x="1981" y="239" width="131" height="54" as="geometry" />
        </mxCell>
        <mxCell id="GJp7qIwiaFxDaX9s0zIp-23" value="Domain Entities" style="whiteSpace=wrap;strokeWidth=2;" vertex="1" parent="1">
          <mxGeometry x="751" y="1014" width="173" height="54" as="geometry" />
        </mxCell>
        <mxCell id="GJp7qIwiaFxDaX9s0zIp-24" value="Repositories Interfaces" style="whiteSpace=wrap;strokeWidth=2;" vertex="1" parent="1">
          <mxGeometry x="974" y="1014" width="224" height="54" as="geometry" />
        </mxCell>
        <mxCell id="GJp7qIwiaFxDaX9s0zIp-25" value="Domain Events" style="whiteSpace=wrap;strokeWidth=2;" vertex="1" parent="1">
          <mxGeometry x="1247" y="1014" width="165" height="54" as="geometry" />
        </mxCell>
        <mxCell id="GJp7qIwiaFxDaX9s0zIp-26" value="Domain Exceptions" style="whiteSpace=wrap;strokeWidth=2;" vertex="1" parent="1">
          <mxGeometry x="1462" y="1014" width="195" height="54" as="geometry" />
        </mxCell>
        <mxCell id="GJp7qIwiaFxDaX9s0zIp-27" value="LLM Adapters" style="whiteSpace=wrap;strokeWidth=2;" vertex="1" parent="1">
          <mxGeometry x="511" y="666" width="155" height="54" as="geometry" />
        </mxCell>
        <mxCell id="GJp7qIwiaFxDaX9s0zIp-28" value="Repositories" style="whiteSpace=wrap;strokeWidth=2;" vertex="1" parent="1">
          <mxGeometry x="716" y="666" width="147" height="54" as="geometry" />
        </mxCell>
        <mxCell id="GJp7qIwiaFxDaX9s0zIp-29" value="EF DbContext" style="whiteSpace=wrap;strokeWidth=2;" vertex="1" parent="1">
          <mxGeometry x="913" y="666" width="157" height="54" as="geometry" />
        </mxCell>
        <mxCell id="GJp7qIwiaFxDaX9s0zIp-30" value="External Services" style="whiteSpace=wrap;strokeWidth=2;" vertex="1" parent="1">
          <mxGeometry x="1120" y="666" width="183" height="54" as="geometry" />
        </mxCell>
        <mxCell id="GJp7qIwiaFxDaX9s0zIp-31" value="OpenAI" style="whiteSpace=wrap;strokeWidth=2;" vertex="1" parent="1">
          <mxGeometry x="55" y="1014" width="111" height="54" as="geometry" />
        </mxCell>
        <mxCell id="GJp7qIwiaFxDaX9s0zIp-32" value="Anthropic" style="whiteSpace=wrap;strokeWidth=2;" vertex="1" parent="1">
          <mxGeometry x="216" y="1014" width="129" height="54" as="geometry" />
        </mxCell>
        <mxCell id="GJp7qIwiaFxDaX9s0zIp-33" value="Google AI" style="whiteSpace=wrap;strokeWidth=2;" vertex="1" parent="1">
          <mxGeometry x="423" y="1014" width="127" height="54" as="geometry" />
        </mxCell>
        <mxCell id="GJp7qIwiaFxDaX9s0zIp-34" value="" style="curved=1;startArrow=none;endArrow=block;exitX=0.5;exitY=1;entryX=0.5;entryY=0;rounded=0;" edge="1" parent="1" source="GJp7qIwiaFxDaX9s0zIp-7" target="GJp7qIwiaFxDaX9s0zIp-8">
          <mxGeometry relative="1" as="geometry">
            <Array as="points" />
          </mxGeometry>
        </mxCell>
        <mxCell id="GJp7qIwiaFxDaX9s0zIp-35" value="" style="curved=1;startArrow=none;endArrow=block;exitX=1;exitY=0.25;entryX=1;entryY=0.37;rounded=0;strokeColor=default;exitDx=0;exitDy=0;" edge="1" parent="1" source="GJp7qIwiaFxDaX9s0zIp-8" target="GJp7qIwiaFxDaX9s0zIp-9">
          <mxGeometry relative="1" as="geometry">
            <Array as="points">
              <mxPoint x="2390" y="660" />
              <mxPoint x="2340" y="60" />
            </Array>
          </mxGeometry>
        </mxCell>
        <mxCell id="GJp7qIwiaFxDaX9s0zIp-36" value="" style="curved=1;startArrow=none;endArrow=block;exitX=1;exitY=0.65;entryX=0.5;entryY=0;rounded=0;strokeColor=default;" edge="1" parent="1" source="GJp7qIwiaFxDaX9s0zIp-9" target="GJp7qIwiaFxDaX9s0zIp-10">
          <mxGeometry relative="1" as="geometry">
            <Array as="points">
              <mxPoint x="2100" y="160" />
              <mxPoint x="2240" y="300" />
              <mxPoint x="2230" y="430" />
              <mxPoint x="2120" y="520" />
            </Array>
          </mxGeometry>
        </mxCell>
        <mxCell id="GJp7qIwiaFxDaX9s0zIp-37" value="" style="curved=1;startArrow=none;endArrow=block;exitX=0;exitY=0.67;entryX=0.5;entryY=0;rounded=0;entryDx=0;entryDy=0;" edge="1" parent="1" source="GJp7qIwiaFxDaX9s0zIp-9" target="GJp7qIwiaFxDaX9s0zIp-11">
          <mxGeometry relative="1" as="geometry">
            <Array as="points">
              <mxPoint x="1070" y="112" />
              <mxPoint x="892" y="290" />
            </Array>
          </mxGeometry>
        </mxCell>
        <mxCell id="GJp7qIwiaFxDaX9s0zIp-38" value="" style="curved=1;startArrow=none;endArrow=block;exitX=0;exitY=0.87;entryX=0.5;entryY=0;rounded=0;entryDx=0;entryDy=0;" edge="1" parent="1" source="GJp7qIwiaFxDaX9s0zIp-11" target="GJp7qIwiaFxDaX9s0zIp-12">
          <mxGeometry relative="1" as="geometry">
            <Array as="points">
              <mxPoint x="522" y="591" />
              <mxPoint x="430" y="640" />
            </Array>
          </mxGeometry>
        </mxCell>
        <mxCell id="GJp7qIwiaFxDaX9s0zIp-39" value="" style="curved=1;startArrow=none;endArrow=block;exitX=0;exitY=0.9;entryX=0.597;entryY=-0.005;rounded=0;entryDx=0;entryDy=0;entryPerimeter=0;" edge="1" parent="1" source="GJp7qIwiaFxDaX9s0zIp-11" target="GJp7qIwiaFxDaX9s0zIp-13">
          <mxGeometry relative="1" as="geometry">
            <Array as="points">
              <mxPoint x="550" y="610" />
              <mxPoint x="490" y="650" />
              <mxPoint x="490" y="690" />
              <mxPoint x="510" y="810" />
            </Array>
          </mxGeometry>
        </mxCell>
        <mxCell id="GJp7qIwiaFxDaX9s0zIp-40" value="" style="curved=1;startArrow=none;endArrow=block;exitX=1;exitY=0.7;entryX=0.25;entryY=0;rounded=0;entryDx=0;entryDy=0;" edge="1" parent="1" source="GJp7qIwiaFxDaX9s0zIp-11" target="GJp7qIwiaFxDaX9s0zIp-10">
          <mxGeometry relative="1" as="geometry">
            <Array as="points">
              <mxPoint x="1050" y="610" />
              <mxPoint x="1090" y="670" />
              <mxPoint x="1070" y="820" />
            </Array>
          </mxGeometry>
        </mxCell>
        <mxCell id="GJp7qIwiaFxDaX9s0zIp-41" value="" style="curved=1;startArrow=none;endArrow=block;exitX=0;exitY=0.82;entryX=0.5;entryY=0;rounded=0;" edge="1" parent="1" source="GJp7qIwiaFxDaX9s0zIp-8" target="GJp7qIwiaFxDaX9s0zIp-14">
          <mxGeometry relative="1" as="geometry">
            <Array as="points">
              <mxPoint x="1664" y="715" />
            </Array>
          </mxGeometry>
        </mxCell>
        <mxCell id="GJp7qIwiaFxDaX9s0zIp-42" value="" style="curved=1;startArrow=none;endArrow=block;exitX=0.5;exitY=1;entryX=0.5;entryY=0;rounded=0;" edge="1" parent="1" source="GJp7qIwiaFxDaX9s0zIp-8" target="GJp7qIwiaFxDaX9s0zIp-15">
          <mxGeometry relative="1" as="geometry">
            <Array as="points" />
          </mxGeometry>
        </mxCell>
        <mxCell id="GJp7qIwiaFxDaX9s0zIp-43" value="" style="curved=1;startArrow=none;endArrow=block;exitX=1;exitY=0.76;entryX=0.5;entryY=0;rounded=0;" edge="1" parent="1" source="GJp7qIwiaFxDaX9s0zIp-8" target="GJp7qIwiaFxDaX9s0zIp-16">
          <mxGeometry relative="1" as="geometry">
            <Array as="points">
              <mxPoint x="2092" y="715" />
            </Array>
          </mxGeometry>
        </mxCell>
        <mxCell id="GJp7qIwiaFxDaX9s0zIp-44" value="" style="curved=1;startArrow=none;endArrow=block;exitX=1;exitY=0.63;entryX=0.5;entryY=0;rounded=0;" edge="1" parent="1" source="GJp7qIwiaFxDaX9s0zIp-8" target="GJp7qIwiaFxDaX9s0zIp-17">
          <mxGeometry relative="1" as="geometry">
            <Array as="points">
              <mxPoint x="2340" y="715" />
            </Array>
          </mxGeometry>
        </mxCell>
        <mxCell id="GJp7qIwiaFxDaX9s0zIp-45" value="" style="curved=1;startArrow=none;endArrow=block;exitX=0;exitY=0.7;entryX=0.5;entryY=0;rounded=0;" edge="1" parent="1" source="GJp7qIwiaFxDaX9s0zIp-9" target="GJp7qIwiaFxDaX9s0zIp-18">
          <mxGeometry relative="1" as="geometry">
            <Array as="points">
              <mxPoint x="1115" y="164" />
            </Array>
          </mxGeometry>
        </mxCell>
        <mxCell id="GJp7qIwiaFxDaX9s0zIp-46" value="" style="curved=1;startArrow=none;endArrow=block;exitX=0;exitY=0.88;entryX=0.5;entryY=0;rounded=0;" edge="1" parent="1" source="GJp7qIwiaFxDaX9s0zIp-9" target="GJp7qIwiaFxDaX9s0zIp-19">
          <mxGeometry relative="1" as="geometry">
            <Array as="points">
              <mxPoint x="1333" y="164" />
            </Array>
          </mxGeometry>
        </mxCell>
        <mxCell id="GJp7qIwiaFxDaX9s0zIp-47" value="" style="curved=1;startArrow=none;endArrow=block;exitX=0.5;exitY=1;entryX=0.5;entryY=0;rounded=0;" edge="1" parent="1" source="GJp7qIwiaFxDaX9s0zIp-9" target="GJp7qIwiaFxDaX9s0zIp-20">
          <mxGeometry relative="1" as="geometry">
            <Array as="points" />
          </mxGeometry>
        </mxCell>
        <mxCell id="GJp7qIwiaFxDaX9s0zIp-48" value="" style="curved=1;startArrow=none;endArrow=block;exitX=1;exitY=0.84;entryX=0.5;entryY=0;rounded=0;" edge="1" parent="1" source="GJp7qIwiaFxDaX9s0zIp-9" target="GJp7qIwiaFxDaX9s0zIp-21">
          <mxGeometry relative="1" as="geometry">
            <Array as="points">
              <mxPoint x="1829" y="164" />
            </Array>
          </mxGeometry>
        </mxCell>
        <mxCell id="GJp7qIwiaFxDaX9s0zIp-49" value="" style="curved=1;startArrow=none;endArrow=block;exitX=1;exitY=0.69;entryX=0.5;entryY=0;rounded=0;" edge="1" parent="1" source="GJp7qIwiaFxDaX9s0zIp-9" target="GJp7qIwiaFxDaX9s0zIp-22">
          <mxGeometry relative="1" as="geometry">
            <Array as="points">
              <mxPoint x="2046" y="164" />
            </Array>
          </mxGeometry>
        </mxCell>
        <mxCell id="GJp7qIwiaFxDaX9s0zIp-50" value="" style="curved=1;startArrow=none;endArrow=block;exitX=0;exitY=0.7;entryX=0.5;entryY=0;rounded=0;" edge="1" parent="1" source="GJp7qIwiaFxDaX9s0zIp-10" target="GJp7qIwiaFxDaX9s0zIp-23">
          <mxGeometry relative="1" as="geometry">
            <Array as="points">
              <mxPoint x="838" y="964" />
            </Array>
          </mxGeometry>
        </mxCell>
        <mxCell id="GJp7qIwiaFxDaX9s0zIp-51" value="" style="curved=1;startArrow=none;endArrow=block;exitX=0.1;exitY=1;entryX=0.5;entryY=0;rounded=0;" edge="1" parent="1" source="GJp7qIwiaFxDaX9s0zIp-10" target="GJp7qIwiaFxDaX9s0zIp-24">
          <mxGeometry relative="1" as="geometry">
            <Array as="points">
              <mxPoint x="1086" y="964" />
            </Array>
          </mxGeometry>
        </mxCell>
        <mxCell id="GJp7qIwiaFxDaX9s0zIp-52" value="" style="curved=1;startArrow=none;endArrow=block;exitX=0.9;exitY=1;entryX=0.5;entryY=0;rounded=0;" edge="1" parent="1" source="GJp7qIwiaFxDaX9s0zIp-10" target="GJp7qIwiaFxDaX9s0zIp-25">
          <mxGeometry relative="1" as="geometry">
            <Array as="points">
              <mxPoint x="1330" y="964" />
            </Array>
          </mxGeometry>
        </mxCell>
        <mxCell id="GJp7qIwiaFxDaX9s0zIp-53" value="" style="curved=1;startArrow=none;endArrow=block;exitX=1;exitY=0.72;entryX=0.5;entryY=0;rounded=0;" edge="1" parent="1" source="GJp7qIwiaFxDaX9s0zIp-10" target="GJp7qIwiaFxDaX9s0zIp-26">
          <mxGeometry relative="1" as="geometry">
            <Array as="points">
              <mxPoint x="1560" y="964" />
            </Array>
          </mxGeometry>
        </mxCell>
        <mxCell id="GJp7qIwiaFxDaX9s0zIp-54" value="" style="curved=1;startArrow=none;endArrow=block;exitX=0;exitY=0.99;entryX=0.5;entryY=0;rounded=0;" edge="1" parent="1" source="GJp7qIwiaFxDaX9s0zIp-11" target="GJp7qIwiaFxDaX9s0zIp-27">
          <mxGeometry relative="1" as="geometry">
            <Array as="points">
              <mxPoint x="588" y="591" />
            </Array>
          </mxGeometry>
        </mxCell>
        <mxCell id="GJp7qIwiaFxDaX9s0zIp-55" value="" style="curved=1;startArrow=none;endArrow=block;exitX=0.5;exitY=1;entryX=0.5;entryY=0;rounded=0;" edge="1" parent="1" source="GJp7qIwiaFxDaX9s0zIp-11" target="GJp7qIwiaFxDaX9s0zIp-28">
          <mxGeometry relative="1" as="geometry">
            <Array as="points" />
          </mxGeometry>
        </mxCell>
        <mxCell id="GJp7qIwiaFxDaX9s0zIp-56" value="" style="curved=1;startArrow=none;endArrow=block;exitX=1;exitY=0.99;entryX=0.5;entryY=0;rounded=0;" edge="1" parent="1" source="GJp7qIwiaFxDaX9s0zIp-11" target="GJp7qIwiaFxDaX9s0zIp-29">
          <mxGeometry relative="1" as="geometry">
            <Array as="points">
              <mxPoint x="991" y="591" />
            </Array>
          </mxGeometry>
        </mxCell>
        <mxCell id="GJp7qIwiaFxDaX9s0zIp-57" value="" style="curved=1;startArrow=none;endArrow=block;exitX=1;exitY=0.73;entryX=0.5;entryY=0;rounded=0;" edge="1" parent="1" source="GJp7qIwiaFxDaX9s0zIp-11" target="GJp7qIwiaFxDaX9s0zIp-30">
          <mxGeometry relative="1" as="geometry">
            <Array as="points">
              <mxPoint x="1211" y="591" />
            </Array>
          </mxGeometry>
        </mxCell>
        <mxCell id="GJp7qIwiaFxDaX9s0zIp-58" value="" style="curved=1;startArrow=none;endArrow=block;exitX=0.24;exitY=1;entryX=0.5;entryY=0;rounded=0;" edge="1" parent="1" source="GJp7qIwiaFxDaX9s0zIp-12" target="GJp7qIwiaFxDaX9s0zIp-31">
          <mxGeometry relative="1" as="geometry">
            <Array as="points">
              <mxPoint x="111" y="964" />
            </Array>
          </mxGeometry>
        </mxCell>
        <mxCell id="GJp7qIwiaFxDaX9s0zIp-59" value="" style="curved=1;startArrow=none;endArrow=block;exitX=0.63;exitY=1;entryX=0.5;entryY=0;rounded=0;" edge="1" parent="1" source="GJp7qIwiaFxDaX9s0zIp-12" target="GJp7qIwiaFxDaX9s0zIp-32">
          <mxGeometry relative="1" as="geometry">
            <Array as="points">
              <mxPoint x="281" y="964" />
            </Array>
          </mxGeometry>
        </mxCell>
        <mxCell id="GJp7qIwiaFxDaX9s0zIp-60" value="" style="curved=1;startArrow=none;endArrow=block;exitX=1;exitY=0.91;entryX=0.5;entryY=0;rounded=0;" edge="1" parent="1" source="GJp7qIwiaFxDaX9s0zIp-12" target="GJp7qIwiaFxDaX9s0zIp-33">
          <mxGeometry relative="1" as="geometry">
            <Array as="points">
              <mxPoint x="487" y="964" />
            </Array>
          </mxGeometry>
        </mxCell>
      </root>
    </mxGraphModel>
  </diagram>
</mxfile>
